<?xml version="1.0" encoding="utf-8"?>
<!-- Generator: Adobe Illustrator 24.3.0, SVG Export Plug-In . SVG Version: 6.00 Build 0)  -->
<svg version="1.1" id="Layer_1" xmlns="http://www.w3.org/2000/svg" xmlns:xlink="http://www.w3.org/1999/xlink" x="0px" y="0px"
	 viewBox="0 0 13.9 13.9" style="enable-background:new 0 0 13.9 13.9;" xml:space="preserve">
<style type="text/css">
	.st0{fill:#FFFFFF;}
</style>
<g id="Layer_2_1_">
	<g id="Layer_1-2">
		<path class="st0" d="M12.9,13.9c-0.3,0-0.6-0.1-0.8-0.3l-2.9-2.9c-2.7,1.8-6.3,1.2-8.2-1.5s-1.2-6.3,1.5-8.2s6.3-1.2,8.2,1.5
			c1.4,2,1.4,4.6,0,6.6l2.9,2.9c0.2,0.2,0.3,0.5,0.3,0.8C13.9,13.5,13.5,13.9,12.9,13.9z M5.9,2.1c-2.1,0-3.8,1.7-3.7,3.8
			s1.7,3.8,3.8,3.7C8,9.6,9.6,8,9.6,5.9C9.6,3.8,8,2.2,5.9,2.1L5.9,2.1z"/>
	</g>
</g>
</svg>
