<?xml version="1.0" encoding="utf-8"?>
<!-- Generator: Adobe Illustrator 26.5.0, SVG Export Plug-In . SVG Version: 6.00 Build 0)  -->
<svg version="1.1" id="Layer_1" xmlns="http://www.w3.org/2000/svg" xmlns:xlink="http://www.w3.org/1999/xlink" x="0px" y="0px"
	 viewBox="0 0 187.5 58.6" style="enable-background:new 0 0 187.5 58.6;" xml:space="preserve">
<style type="text/css">
	.st0{fill:#FFFFFF;}
</style>
<g>
	<g>
		<path class="st0" d="M12.8,21.7c1.6,0,2.8-0.3,4-0.9V12h4.3v11.6c-2.4,1.5-5,2.4-8.4,2.4C5.9,26,0,20.9,0,13S5.9,0,12.7,0
			c2.9,0,5.5,0.7,7.5,1.9v4.7c-2.2-1.5-4.6-2.1-7-2.1c-4.9,0-8.4,3.6-8.4,8.6C4.8,18.1,8.2,21.7,12.8,21.7L12.8,21.7z"/>
		<path class="st0" d="M42.3,25.4l-2.4-6.5h-9.8l-2.4,6.5h-4.9l9.4-24.9h5.4l9.6,24.9C47.3,25.4,42.3,25.4,42.3,25.4z M38.5,15
			L35,5.5L31.5,15H38.5L38.5,15z"/>
		<path class="st0" d="M60.8,21.7c1.6,0,2.8-0.3,4-0.9V12h4.3v11.6c-2.4,1.5-5,2.4-8.4,2.4c-6.8,0-12.7-5.1-12.7-13S54,0,60.8,0
			c2.9,0,5.5,0.7,7.5,1.9v4.7c-2.2-1.5-4.6-2.1-7-2.1c-4.9,0-8.4,3.6-8.4,8.6C52.9,18.1,56.3,21.7,60.8,21.7L60.8,21.7z"/>
		<path class="st0" d="M74,0.6h15v4.2H78.7v6h9.5v3.9h-9.5v6.4H89v4.2H74V0.6z"/>
		<g>
			<path class="st0" d="M118.8,1.7v4.4c-1.7-1.2-4-1.9-6.1-1.9c-2.3,0-4.1,1-4.1,2.8c0,1.7,1.5,2.5,4.4,3.7c3.6,1.5,7.2,3.1,7.2,7.6
				c0,4.6-3.7,7.6-8.8,7.6c-3,0-5.7-1.1-7.4-2.3V19c1.7,1.6,4.4,2.8,7,2.8c2.5,0,4.4-1.2,4.4-3.3c0-1.9-1.8-2.8-4.7-4
				c-3.3-1.4-6.7-3-6.7-7.2c0-4.3,3.5-7.2,8.5-7.2C114.9,0,117.2,0.7,118.8,1.7z"/>
			<path class="st0" d="M140.8,25.4l-2.4-6.5h-9.8l-2.4,6.5h-4.9l9.5-24.9h5.4l9.6,24.9H140.8L140.8,25.4z M137,15l-3.5-9.5L130,15
				H137L137,15z"/>
			<path class="st0" d="M159.3,21.7c1.6,0,2.8-0.3,4-0.9V12h4.3v11.6c-2.4,1.5-5,2.4-8.4,2.4c-6.8,0-12.7-5.1-12.7-13
				s5.9-13,12.7-13c2.9,0,5.5,0.7,7.5,1.9v4.7c-2.2-1.5-4.6-2.1-7-2.1c-4.9,0-8.4,3.6-8.4,8.6C151.4,18.1,154.8,21.7,159.3,21.7
				L159.3,21.7z"/>
			<path class="st0" d="M172.5,0.6h15v4.2h-10.3v6h9.5v3.9h-9.5v6.4h10.3v4.2h-15V0.6z"/>
		</g>
	</g>
</g>
<g>
	<path class="st0" d="M3.3,40.4h9.8v2.1H5.6v6.2h7.2v2H5.6v7.5H3.3V40.4z"/>
	<path class="st0" d="M29.7,58.3l-2.1-5.4h-7.7l-2.1,5.4h-2.4l7-17.9H25l7.1,17.9H29.7z M26.8,50.8l-3.1-7.9l-3.1,7.9H26.8z"/>
	<path class="st0" d="M43.8,58.6c-4.7,0-8.9-3.6-8.9-9.3c0-5.7,4.2-9.3,8.9-9.3c2,0,3.6,0.6,4.7,1.2v2.4c-1.4-0.9-2.7-1.4-4.6-1.4
		c-3.3,0-6.7,2.6-6.7,7.2c0,4.5,3.3,7.2,6.7,7.2c1.9,0,3.2-0.6,4.6-1.5v2.4C47.4,58.1,45.8,58.6,43.8,58.6z"/>
	<path class="st0" d="M54.4,40.4h2.2v17.9h-2.2V40.4z"/>
	<path class="st0" d="M64.5,40.4h2.2v15.8h7.9v2.1H64.5V40.4z"/>
	<path class="st0" d="M79.4,40.4h2.2v17.9h-2.2V40.4z"/>
	<path class="st0" d="M92.1,42.5h-5.6v-2.1h13.5v2.1h-5.6v15.8h-2.2V42.5z"/>
	<path class="st0" d="M104.7,40.4h2.2v17.9h-2.2V40.4z"/>
	<path class="st0" d="M114.8,40.4h9.8v2.1H117v5.7h7v2h-7v6h7.6v2.1h-9.8V40.4z"/>
	<path class="st0" d="M139.5,41.2v2.3c-1.2-0.9-2.8-1.4-4.2-1.4c-1.8,0-3.4,0.9-3.4,2.7c0,1.6,1.2,2.3,3.7,3.4
		c2.7,1.2,4.9,2.4,4.9,5.3c0,3.3-2.7,5.2-5.9,5.2c-2.1,0-3.9-0.8-5-1.7v-2.5c1.2,1.2,3.1,2.1,4.9,2.1c2,0,3.7-1.1,3.7-3
		c0-1.7-1.3-2.5-3.8-3.6c-2.6-1.2-4.7-2.3-4.7-5.1c0-3.1,2.5-4.9,5.6-4.9C136.9,40,138.4,40.5,139.5,41.2z"/>
</g>
</svg>
